<?xml version="1.0" standalone="no"?>
<svg viewBox="0 0 200 200" xmlns="http://www.w3.org/2000/svg">
  <path fill="#000000" d="M44.7,-76.3C57.2,-70.2,66.2,-56.8,67.5,-42.8C68.8,-28.9,62.4,-14.5,62.2,-0.1C62,14.2,67.9,28.4,66.6,42.3C65.3,56.3,56.8,69.9,44.5,71.7C32.2,73.5,16.1,63.3,1.9,60.1C-12.4,56.8,-24.7,60.5,-38.8,59.8C-53,59.1,-68.9,54,-76.9,43.3C-85,32.6,-85.1,16.3,-79.1,3.5C-73,-9.3,-60.6,-18.6,-53.7,-31.2C-46.8,-43.8,-45.2,-59.7,-37.2,-68.4C-29.1,-77,-14.6,-78.3,0.8,-79.7C16.1,-81,32.2,-82.3,44.7,-76.3Z" transform="translate(100 100)" />
</svg>
